<svg width="35" height="35" viewBox="0 0 35 35" fill="none" xmlns="http://www.w3.org/2000/svg">
<g clip-path="url(#clip0_3604_137)">
<path d="M17.5 35C27.165 35 35 27.165 35 17.5C35 7.83502 27.165 0 17.5 0C7.83502 0 0 7.83502 0 17.5C0 27.165 7.83502 35 17.5 35Z" fill="#F8D24E"/>
<path d="M22.3624 17.4798H19.5075V28H15.1822V17.4798H13.125V13.7825H15.1822V11.39C15.1822 9.67911 15.9901 7 19.546 7L22.75 7.01348V10.6023H20.4253C20.044 10.6023 19.5078 10.7939 19.5078 11.6101V13.786H22.7403L22.3624 17.4798Z" fill="#FCFCFC"/>
</g>
<defs>
<clipPath id="clip0_3604_137">
<rect width="35" height="35" fill="white"/>
</clipPath>
</defs>
</svg>
