<svg width="35" height="35" viewBox="0 0 40 40" fill="none" xmlns="http://www.w3.org/2000/svg">
<circle cx="20.0469" cy="19.9531" r="19.1406" fill="#F8D24E"/>
<path d="M19.5016 10.2058C13.8475 10.2058 9.20752 14.8458 9.20752 20.4999C9.20752 25.3248 12.5931 29.7077 17.089 30.794V27.3883C16.6435 27.4859 16.2335 27.4887 15.78 27.355C15.1717 27.1755 14.6774 26.7702 14.3104 26.1523C14.0766 25.7577 13.662 25.3299 13.2296 25.3613L13.1236 24.1596C14.0586 24.0795 14.8676 24.7293 15.3478 25.5361C15.5611 25.8949 15.8066 26.1052 16.1217 26.1982C16.4263 26.2879 16.7533 26.2448 17.1343 26.1102C17.23 25.3473 17.5795 25.0617 17.8435 24.6596V24.659C15.1623 24.2591 14.0937 22.8366 13.6696 21.7138C13.1076 20.223 13.4091 18.3606 14.403 17.1836C14.4223 17.1607 14.4571 17.1007 14.4436 17.0587C13.988 15.6823 14.5432 14.5436 14.5636 14.4228C15.0895 14.5783 15.175 14.2664 16.848 15.2828L17.1372 15.4565C17.2581 15.5286 17.2201 15.4875 17.3411 15.4784C18.0396 15.2886 18.7759 15.1839 19.5015 15.1744C20.2325 15.1839 20.9642 15.2886 21.6916 15.4861L21.7852 15.4955C21.777 15.4942 21.8106 15.4895 21.867 15.4559C23.9569 14.19 23.8819 14.6038 24.4423 14.4216C24.4626 14.5425 25.0104 15.6997 24.5596 17.0587C24.4988 17.2459 26.3715 18.9607 25.3335 21.7133C24.9094 22.8366 23.841 24.2591 21.1597 24.659V24.6596C21.5034 25.1835 21.9164 25.4621 21.9142 26.5428V30.794C26.4101 29.7077 29.7956 25.3248 29.7956 20.4999C29.7958 14.8458 25.1557 10.2058 19.5016 10.2058V10.2058Z" fill="#FCFCFC"/>
</svg>
